. 
  
http://www.torrentday.com/        :     The Hottest Private Tracker On The Net!!! 
http://www.torrentday.com          :     Once you visit it, You can't stop yourself visiting Torrentday everyday ;)


               www . TorrentDay . Com 

(((((((((((((= Enjoy No RAR releases =))))))))))))))))))))


...................................NFO:....................................

.[pre]  
    *********** ****    ****      ***      ******** *********** ****    *** **********
           *+*     +*+*+* *+*+*+   *+* *+*   *+*    *+*    *+*     *+*+*   *+* *+*        
           +*+     +*+ +*+*+ +*+  +*+   +*+  +*+           +*+     *+*+*+  +*+ +*+        
           +$+     +$+  +*+  +$+ +$++*++$++* *$*           +$+     +$+ +*+ +$+ +$++*++$  
           +$+     +$+       +$+ +$+     +$+ +$+   +$+$    +$+     +$+  +$+$+$ +$+        
           $+$     $+$       $+$ $+$     $+$ $+$    $+$    $+$     $+$   $+$+$ $+$        
       $$$$$$$$$$$ $$$       $$$ $$$     $$$  $$$$$$$$ $$$$$$$$$$$ $$$    $$$$ $$$$$$$$$$     
                                                



                           Another Fine Release Brought to you from - IMAGiNE                   
                                                 

********************************************************************************************************************                                
                               The Company Men DVDSCR XViD AC3 - IMAGiNE
********************************************************************************************************************

Ripper ...........:IMAGiNE                                       IMDB Rating.......:6.7/10                             
Video Codec.......:XVID                                          Release Date......:01/09/11
Audio Codec.......:AC3                                           Theatre Date......:01/22/11
Audio Bitrate.....:448                                           Runtime...........:1h 44mn
Subtitles.........:NIL                                           Language..........:ENGLISH
Resolution........:720 x 400                                     IMDb URL..........:http://www.imdb.com/title/tt1172991/


[color=yellow]DETAILS:[/color]

Video
ID                               : 0
Format                           : MPEG-4 Visual
Format profile                   : Advanced Simple@L5
Format settings, BVOP            : Yes
Format settings, QPel            : No
Format settings, GMC             : No warppoints
Format settings, Matrix          : Default (H.263)
Muxing mode                      : Packed bitstream
Codec ID                         : XVID
Codec ID/Hint                    : XviD
Duration                         : 1h 44mn
Bit rate                         : 1 328 Kbps
Width                            : 720 pixels
Height                           : 400 pixels
Display aspect ratio             : 16:9
Frame rate                       : 23.976 fps
Color space                      : YUV
Chroma subsampling               : 4:2:0
Bit depth                        : 8 bits
Scan type                        : Progressive
Bits/(Pixel*Frame)               : 0.192
Stream size                      : 994 MiB (74%)
Writing library                  : XviD 1.1.2 (UTC 2006-11-01)

Audio
ID                               : 1
Format                           : AC-3
Format/Info                      : Audio Coding 3
Mode extension                   : CM (complete main)
Codec ID                         : 2000
Duration                         : 1h 44mn
Bit rate mode                    : Constant
Bit rate                         : 448 Kbps
Channel(s)                       : 6 channels
Channel positions                : Front: L C R, Side: L R, LFE
Sampling rate                    : 48.0 KHz
Bit depth                        : 16 bits
Stream size                      : 335 MiB (25%)
Alignment                        : Aligned on interleaves
Interleave, duration             : 42 ms (1.00 video frame)
Interleave, preload duration     : 512 ms



[color=yellow]SOURCES:[/color]

VIDEO: The Company Of Men 2011 scr Demedic Thanks Bro... :)
AUDIO: The Company Of Men 2011 scr Demedic Thanks Bro... :)

[color=yellow]NOTES:[/color]

IMAGiNE bringing you another release..........

Here we go with another screener for you courtesy of Demedic... Thanks Bro :)
It's a very nice looking scr so only a few little things we're done to this source. We first made a small script to
crop,resize, sharpened it up some, and then we adjusted the gamma and the brightness a tad as well as the adjusted 
the rgb colors slightly. The audio is studio 5.1 AC3 :) so all we did was mux that to our encode... :P

Enjoy...


[color=yellow]SCREENS:[/color]

[IMG]http://www.grinshare.com/img/0CA6XT.png[/IMG]
[IMG]http://www.grinshare.com/img/KYONUR.png[/IMG]
[IMG]http://www.grinshare.com/img/U68QLZ.png[/IMG]
[IMG]http://www.grinshare.com/img/XSJEYC.png[/IMG]
[IMG]http://www.grinshare.com/img/VZYPIM.png[/IMG]

[color=yellow]GREETS:[/color]

FLAWL3SS,ViSiON,FUSiON,Rx,SecretMyth,BirdFlu,ELEKTRI4KA,Serenity
And to all the other p2p grps past and present 

[COLOR=RED]Looking for these,syncers,cammers,audio,silver supplier.....Have anything to offer????......
Contact us imaginegroup@hushmail.com[/COLOR][/pre]